<svg xmlns="http://www.w3.org/2000/svg" xml:space="preserve" width="24" height="24" id="travel">
  <g fill="none">
    <path d="M0 0h24v24H0z"></path>
    <path d="M0 0h24v24H0z"></path>
  </g>
  <g fill="#fff">
    <path d="M.002 12.002a9.98 9.98 0 0 0 .461 3h4.539v-6H.463a9.986 9.986 0 0 0-.461 3zM1.355 7.002h3.647V3.354a10.068 10.068 0 0 0-3.647 3.648zM11.002 9.002h-4v6h6v-3h-2zM11.002 2.053a9.98 9.98 0 0 0-4 .41v4.539h4V2.053zM15.002 20.648a10.05 10.05 0 0 0 3.647-3.647h-3.647v3.647zM5.002 20.648v-3.647H1.355a10.042 10.042 0 0 0 3.647 3.647zM15.002 15.002h4.539a9.98 9.98 0 0 0 .461-3h-5v3zM7.002 21.541c.947.299 1.955.46 3 .46s2.053-.162 3-.46v-4.54h-6v4.54zM23.915 3.522a1.012 1.012 0 0 0-1.297-.523l-2.806 1.249-3.322-2.103-1.607.832c.159.103 3.045 2.025 3.235 2.025l-2.43 1.082-2.102-.939-1.584.913 4 2.006 2.199-1.015-1.523 3.953 1.797-.933 2.191-4.003 2.732-1.204c.513-.222.746-.825.517-1.34z"></path>
  </g>
</svg>
